<svg width="960" height="600" viewBox="0 0 960 600" fill="none" xmlns="http://www.w3.org/2000/svg">
  <rect width="960" height="600" rx="32" fill="#050716"/>
  <rect x="104" y="80" width="300" height="440" rx="42" fill="#071426" stroke="#274566" stroke-width="3"/>
  <rect x="134" y="126" width="240" height="64" rx="20" fill="#0d2238"/>
  <text x="162" y="166" fill="#e0f2fe" font-family="Inter, Arial, sans-serif" font-size="23" font-weight="900">DocuFind AI</text>
  <rect x="134" y="222" width="240" height="46" rx="23" fill="#10243a" stroke="#31506f"/>
  <circle cx="160" cy="245" r="9" stroke="#67e8f9" stroke-width="4"/>
  <path d="M168 253l12 12" stroke="#67e8f9" stroke-width="4" stroke-linecap="round"/>
  <text x="196" y="252" fill="#cbd5e1" font-family="Inter, Arial, sans-serif" font-size="15">find my aadhaar</text>
  <rect x="134" y="304" width="106" height="138" rx="18" fill="#e2e8f0"/>
  <rect x="154" y="332" width="66" height="8" rx="4" fill="#64748b"/>
  <rect x="154" y="358" width="48" height="8" rx="4" fill="#94a3b8"/>
  <rect x="154" y="386" width="66" height="38" rx="8" fill="#67e8f9"/>
  <rect x="266" y="304" width="108" height="138" rx="18" fill="#dbeafe"/>
  <rect x="288" y="332" width="64" height="8" rx="4" fill="#64748b"/>
  <rect x="288" y="360" width="46" height="8" rx="4" fill="#94a3b8"/>
  <circle cx="320" cy="404" r="24" fill="#a78bfa"/>
  <rect x="500" y="116" width="322" height="102" rx="28" fill="#071426" stroke="#274566"/>
  <text x="536" y="157" fill="#e0f2fe" font-family="Inter, Arial, sans-serif" font-size="24" font-weight="900">On-device indexing</text>
  <text x="536" y="188" fill="#a8b9cf" font-family="Inter, Arial, sans-serif" font-size="17">OCR, classification, SQLite and voice search</text>
  <rect x="500" y="270" width="322" height="210" rx="28" fill="#071426" stroke="#274566"/>
  <path d="M548 372h226" stroke="#1f3b56" stroke-width="14" stroke-linecap="round"/>
  <path d="M548 372h138" stroke="#67e8f9" stroke-width="14" stroke-linecap="round"/>
  <path d="M548 328h226" stroke="#1f3b56" stroke-width="14" stroke-linecap="round"/>
  <path d="M548 328h184" stroke="#34d399" stroke-width="14" stroke-linecap="round"/>
  <path d="M548 416h226" stroke="#1f3b56" stroke-width="14" stroke-linecap="round"/>
  <path d="M548 416h106" stroke="#a78bfa" stroke-width="14" stroke-linecap="round"/>
  <text x="548" y="304" fill="#e2e8f0" font-family="Inter, Arial, sans-serif" font-size="18" font-weight="800">Document match confidence</text>
</svg>
