<svg width="960" height="600" viewBox="0 0 960 600" fill="none" xmlns="http://www.w3.org/2000/svg">
  <rect width="960" height="600" rx="32" fill="#050716"/>
  <path d="M80 82h800v436H80z" fill="#07111f" stroke="#26364f" stroke-width="2"/>
  <rect x="108" y="112" width="168" height="376" rx="18" fill="#0c1a2b" stroke="#1f334b"/>
  <text x="134" y="154" fill="#dbeafe" font-family="Inter, Arial, sans-serif" font-size="22" font-weight="800">Konnect</text>
  <rect x="130" y="192" width="118" height="12" rx="6" fill="#22d3ee" fill-opacity=".7"/>
  <rect x="130" y="228" width="82" height="10" rx="5" fill="#94a3b8" fill-opacity=".45"/>
  <rect x="130" y="260" width="100" height="10" rx="5" fill="#94a3b8" fill-opacity=".35"/>
  <rect x="130" y="292" width="72" height="10" rx="5" fill="#94a3b8" fill-opacity=".35"/>
  <rect x="312" y="112" width="520" height="124" rx="22" fill="#0d1f34" stroke="#294766"/>
  <text x="344" y="154" fill="#ffffff" font-family="Inter, Arial, sans-serif" font-size="24" font-weight="800">Multi-tenant marketplace console</text>
  <text x="344" y="187" fill="#a8b9cf" font-family="Inter, Arial, sans-serif" font-size="17">Provision company-specific environments and track usage</text>
  <rect x="344" y="204" width="90" height="12" rx="6" fill="#34d399"/>
  <rect x="462" y="204" width="74" height="12" rx="6" fill="#22d3ee"/>
  <rect x="566" y="204" width="112" height="12" rx="6" fill="#a78bfa"/>
  <rect x="312" y="272" width="154" height="164" rx="20" fill="#10243a" stroke="#23405d"/>
  <text x="338" y="320" fill="#67e8f9" font-family="Inter, Arial, sans-serif" font-size="34" font-weight="900">30%</text>
  <text x="338" y="352" fill="#cbd5e1" font-family="Inter, Arial, sans-serif" font-size="16">infra cost down</text>
  <rect x="500" y="272" width="154" height="164" rx="20" fill="#10243a" stroke="#23405d"/>
  <text x="526" y="320" fill="#86efac" font-family="Inter, Arial, sans-serif" font-size="34" font-weight="900">70%</text>
  <text x="526" y="352" fill="#cbd5e1" font-family="Inter, Arial, sans-serif" font-size="16">faster provisioning</text>
  <rect x="688" y="272" width="144" height="164" rx="20" fill="#10243a" stroke="#23405d"/>
  <text x="714" y="320" fill="#c4b5fd" font-family="Inter, Arial, sans-serif" font-size="34" font-weight="900">2M+</text>
  <text x="714" y="352" fill="#cbd5e1" font-family="Inter, Arial, sans-serif" font-size="16">events monthly</text>
  <path d="M389 466h370" stroke="#22d3ee" stroke-opacity=".55" stroke-width="4" stroke-linecap="round"/>
  <circle cx="389" cy="466" r="10" fill="#22d3ee"/>
  <circle cx="572" cy="466" r="10" fill="#34d399"/>
  <circle cx="759" cy="466" r="10" fill="#a78bfa"/>
</svg>
