<svg width="960" height="600" viewBox="0 0 960 600" fill="none" xmlns="http://www.w3.org/2000/svg">
  <rect width="960" height="600" rx="32" fill="#050716"/>
  <rect x="82" y="86" width="796" height="428" rx="24" fill="#071426" stroke="#223852" stroke-width="2"/>
  <text x="126" y="136" fill="#e2f3ff" font-family="Inter, Arial, sans-serif" font-size="26" font-weight="900">Route Data Management</text>
  <rect x="126" y="168" width="172" height="42" rx="12" fill="#0f273e" stroke="#2b4f70"/>
  <text x="148" y="195" fill="#9fdfff" font-family="Inter, Arial, sans-serif" font-size="15">City filter</text>
  <rect x="318" y="168" width="172" height="42" rx="12" fill="#0f273e" stroke="#2b4f70"/>
  <text x="340" y="195" fill="#9fdfff" font-family="Inter, Arial, sans-serif" font-size="15">Status filter</text>
  <rect x="510" y="168" width="172" height="42" rx="12" fill="#0f273e" stroke="#2b4f70"/>
  <text x="532" y="195" fill="#9fdfff" font-family="Inter, Arial, sans-serif" font-size="15">Route type</text>
  <rect x="126" y="244" width="710" height="206" rx="18" fill="#0a1b2d" stroke="#203c58"/>
  <path d="M126 296h710M126 348h710M126 400h710M284 244v206M472 244v206M660 244v206" stroke="#203c58"/>
  <text x="152" y="277" fill="#94a3b8" font-family="Inter, Arial, sans-serif" font-size="14">Route</text>
  <text x="312" y="277" fill="#94a3b8" font-family="Inter, Arial, sans-serif" font-size="14">Owner</text>
  <text x="500" y="277" fill="#94a3b8" font-family="Inter, Arial, sans-serif" font-size="14">Updates</text>
  <text x="688" y="277" fill="#94a3b8" font-family="Inter, Arial, sans-serif" font-size="14">Approval</text>
  <rect x="688" y="316" width="88" height="18" rx="9" fill="#34d399"/>
  <rect x="688" y="368" width="88" height="18" rx="9" fill="#facc15"/>
  <rect x="688" y="420" width="88" height="18" rx="9" fill="#22d3ee"/>
  <path d="M156 472c90-48 146-48 236 0s146 48 236 0 138-48 208-12" stroke="#67e8f9" stroke-width="5" stroke-linecap="round"/>
  <circle cx="156" cy="472" r="10" fill="#67e8f9"/>
  <circle cx="392" cy="472" r="10" fill="#34d399"/>
  <circle cx="628" cy="472" r="10" fill="#a78bfa"/>
</svg>
