<svg width="960" height="600" viewBox="0 0 960 600" fill="none" xmlns="http://www.w3.org/2000/svg">
  <rect width="960" height="600" rx="32" fill="#050716"/>
  <path d="M0 0h960v600H0z" fill="url(#bg)"/>
  <path d="M84 88h792v424H84z" fill="#071426" stroke="#1f3353" stroke-width="2"/>
  <path d="M84 88h792v62H84z" fill="#0b1730"/>
  <circle cx="125" cy="119" r="9" fill="#34d399"/>
  <circle cx="156" cy="119" r="9" fill="#22d3ee"/>
  <circle cx="187" cy="119" r="9" fill="#a78bfa"/>
  <text x="229" y="126" fill="#e5f7ff" font-family="Inter, Arial, sans-serif" font-size="22" font-weight="700">Vently realtime room</text>
  <rect x="112" y="178" width="228" height="286" rx="22" fill="#091c2f" stroke="#1f3c5a"/>
  <circle cx="164" cy="234" r="34" fill="#22d3ee" fill-opacity=".22" stroke="#67e8f9"/>
  <path d="M148 236c12 14 24 14 36 0" stroke="#67e8f9" stroke-width="5" stroke-linecap="round"/>
  <rect x="124" y="296" width="160" height="13" rx="6.5" fill="#67e8f9" fill-opacity=".75"/>
  <rect x="124" y="324" width="106" height="10" rx="5" fill="#94a3b8" fill-opacity=".45"/>
  <rect x="124" y="375" width="92" height="34" rx="17" fill="#10b981"/>
  <text x="144" y="397" fill="#04110c" font-family="Inter, Arial, sans-serif" font-size="14" font-weight="800">Live</text>
  <rect x="368" y="184" width="390" height="78" rx="24" fill="#10223b" stroke="#244360"/>
  <text x="400" y="216" fill="#e5f7ff" font-family="Inter, Arial, sans-serif" font-size="20" font-weight="700">Mood matched with AI fallback</text>
  <text x="400" y="241" fill="#9fb4cc" font-family="Inter, Arial, sans-serif" font-size="15">Typing, read states, safe reports and semantic memory</text>
  <rect x="448" y="296" width="312" height="54" rx="22" fill="#22d3ee" fill-opacity=".18" stroke="#22d3ee" stroke-opacity=".45"/>
  <text x="475" y="329" fill="#dffbff" font-family="Inter, Arial, sans-serif" font-size="17">Can you translate this chat?</text>
  <rect x="368" y="374" width="348" height="54" rx="22" fill="#8b5cf6" fill-opacity=".18" stroke="#a78bfa" stroke-opacity=".45"/>
  <text x="395" y="407" fill="#f4edff" font-family="Inter, Arial, sans-serif" font-size="17">AI reply with context ready</text>
  <rect x="786" y="204" width="54" height="54" rx="18" fill="#10b981"/>
  <path d="M800 231c9-13 18-13 27 0M813 217v28" stroke="#04110c" stroke-width="5" stroke-linecap="round"/>
  <rect x="786" y="282" width="54" height="54" rx="18" fill="#7dd3fc"/>
  <path d="M800 300h22l14-10v38l-14-10h-22z" fill="#06131f"/>
  <rect x="786" y="360" width="54" height="54" rx="18" fill="#c4b5fd"/>
  <circle cx="813" cy="387" r="13" stroke="#06131f" stroke-width="5"/>
  <defs>
    <radialGradient id="bg" cx="0" cy="0" r="1" gradientUnits="userSpaceOnUse" gradientTransform="translate(730 126) rotate(135) scale(610 680)">
      <stop stop-color="#155e75" stop-opacity=".6"/>
      <stop offset=".48" stop-color="#111827" stop-opacity=".35"/>
      <stop offset="1" stop-color="#020617"/>
    </radialGradient>
  </defs>
</svg>
